<?xml version="1.0" standalone="no"?>
<!DOCTYPE svg PUBLIC "-//W3C//DTD SVG 20010904//EN"
 "http://www.w3.org/TR/2001/REC-SVG-20010904/DTD/svg10.dtd">
<svg version="1.0" xmlns="http://www.w3.org/2000/svg"
 width="2250.000000pt" height="2250.000000pt" viewBox="0 0 2250.000000 2250.000000"
 preserveAspectRatio="xMidYMid meet">
<metadata>
Created by potrace 1.14, written by Peter Selinger 2001-2017
</metadata>
<g transform="translate(0.000000,2250.000000) scale(0.100000,-0.100000)"
fill="#000000" stroke="none">
<path d="M10449 21246 c-2 -2 -69 -7 -149 -11 -80 -3 -163 -8 -185 -9 -159
-12 -248 -21 -335 -31 -19 -2 -63 -7 -98 -10 -35 -4 -71 -8 -80 -10 -36 -6
-99 -15 -147 -20 -27 -3 -57 -7 -65 -10 -8 -2 -37 -6 -63 -10 -26 -3 -71 -10
-100 -16 -29 -5 -68 -12 -87 -15 -28 -4 -97 -17 -155 -30 -5 -1 -37 -7 -70
-13 -75 -14 -88 -17 -150 -31 -27 -6 -61 -14 -75 -16 -14 -3 -97 -23 -185 -45
-88 -22 -164 -42 -170 -43 -340 -84 -963 -303 -1355 -476 -157 -69 -178 -79
-375 -175 -445 -218 -835 -449 -1301 -772 -144 -100 -545 -408 -621 -477 -6
-6 -33 -29 -59 -51 -202 -168 -642 -590 -835 -800 -121 -133 -206 -230 -290
-330 -46 -55 -86 -102 -89 -105 -13 -11 -229 -291 -323 -419 -80 -110 -333
-483 -384 -566 -92 -153 -189 -316 -225 -380 -25 -44 -58 -102 -73 -130 -44
-78 -215 -418 -272 -540 -176 -378 -327 -772 -477 -1250 -21 -69 -120 -432
-141 -520 -4 -16 -9 -37 -10 -45 -13 -50 -85 -391 -90 -420 -3 -19 -8 -48 -12
-65 -4 -16 -7 -34 -8 -40 0 -5 -4 -30 -9 -55 -4 -25 -10 -58 -12 -75 -3 -16
-9 -55 -14 -85 -5 -30 -16 -111 -25 -180 -9 -69 -18 -141 -20 -160 -2 -19 -7
-62 -10 -95 -3 -33 -8 -76 -10 -95 -10 -79 -20 -214 -32 -425 -15 -267 -8
-1014 12 -1195 2 -19 6 -71 10 -115 6 -83 10 -131 21 -225 3 -30 7 -66 9 -80
1 -14 5 -47 9 -75 4 -27 8 -63 10 -80 6 -44 17 -126 22 -155 2 -14 11 -68 19
-120 24 -147 25 -150 41 -230 9 -41 17 -84 19 -95 1 -11 10 -56 20 -100 9 -44
18 -87 20 -95 126 -593 373 -1327 640 -1905 74 -161 188 -391 207 -418 11 -15
17 -27 15 -27 -8 0 143 -272 246 -445 33 -55 65 -109 71 -120 62 -110 322
-494 460 -680 106 -142 353 -456 403 -510 10 -11 45 -52 78 -90 33 -39 64 -75
70 -81 206 -228 530 -556 690 -699 122 -110 195 -183 300 -300 153 -171 546
-558 709 -698 11 -10 32 -28 46 -40 14 -12 59 -51 100 -86 41 -35 99 -84 129
-110 30 -25 64 -53 76 -61 11 -8 52 -40 91 -71 85 -68 239 -184 359 -270 196
-140 546 -369 565 -369 4 0 10 -3 12 -7 3 -8 106 -73 115 -73 3 0 17 -8 31
-18 15 -11 54 -34 87 -52 33 -18 119 -65 190 -104 115 -63 518 -266 529 -266
2 0 46 -20 97 -44 502 -236 1318 -505 1879 -620 14 -3 36 -7 50 -10 63 -14
129 -27 156 -32 16 -2 40 -7 54 -9 14 -3 36 -8 50 -10 32 -6 149 -26 175 -30
25 -4 84 -13 110 -19 11 -2 47 -7 80 -11 32 -4 68 -9 79 -11 11 -2 44 -6 74
-9 30 -3 67 -7 81 -9 14 -3 57 -7 94 -11 37 -3 76 -8 85 -10 9 -1 62 -6 117
-10 55 -4 116 -9 135 -11 190 -15 339 -19 730 -19 464 0 578 4 880 30 36 3 90
8 120 11 30 2 71 7 90 9 19 3 62 8 95 11 33 3 67 7 75 9 8 1 40 6 70 10 30 3
66 8 80 10 14 3 59 9 100 15 41 5 98 14 125 20 28 5 64 11 80 14 17 2 91 16
165 31 74 15 146 29 160 32 36 6 182 40 295 68 55 14 109 27 120 29 45 10 388
110 505 148 170 55 538 187 605 218 11 5 90 38 175 73 581 243 1172 569 1706
939 97 67 257 184 304 221 9 7 54 41 100 77 47 35 114 88 150 118 36 29 74 61
85 70 270 215 702 628 980 937 50 55 92 102 95 105 63 63 342 409 492 610 188
254 431 619 546 820 10 19 40 70 66 113 25 43 46 79 46 82 0 2 14 28 31 56 17
29 77 143 134 253 168 327 321 675 443 1006 144 391 199 571 316 1020 23 91
88 387 101 460 3 19 12 67 20 105 13 66 40 226 51 305 2 19 7 51 10 70 6 36
10 61 19 145 4 28 8 61 10 75 3 23 13 121 20 195 2 17 6 71 10 120 4 50 9 97
10 106 26 139 26 1258 0 1494 -2 22 -7 76 -10 120 -6 91 -13 164 -20 215 -2
19 -7 58 -10 85 -15 133 -18 156 -40 305 -8 58 -17 116 -20 130 -3 13 -7 42
-11 65 -3 22 -18 105 -34 185 -16 80 -31 156 -34 170 -2 14 -10 48 -16 75 -6
28 -14 61 -16 75 -3 14 -23 95 -44 180 -194 773 -459 1469 -823 2155 -264 500
-569 968 -936 1440 -47 61 -88 112 -91 115 -3 3 -25 30 -50 60 -40 50 -121
145 -217 255 -165 189 -529 560 -697 710 -125 112 -195 182 -316 315 -130 143
-448 462 -595 595 -230 210 -590 506 -784 645 -34 25 -81 59 -104 76 -247 183
-679 451 -1092 677 -100 55 -433 217 -580 281 -82 37 -159 71 -170 76 -167 77
-615 238 -970 350 -59 18 -393 110 -424 116 -7 1 -50 12 -95 23 -117 28 -207
49 -241 55 -16 3 -41 8 -55 11 -14 3 -47 10 -75 15 -27 5 -113 21 -190 35 -77
14 -158 28 -180 31 -22 2 -83 11 -135 19 -111 16 -164 23 -240 30 -30 3 -64 7
-75 10 -11 2 -58 7 -105 10 -47 4 -96 8 -109 10 -14 3 -72 7 -130 10 -58 4
-128 9 -156 11 -57 6 -881 15 -886 10z m836 -230 c39 -3 113 -8 165 -11 152
-10 298 -23 340 -30 14 -2 52 -7 85 -10 117 -11 225 -25 380 -51 50 -8 104
-17 120 -20 290 -46 599 -116 975 -220 91 -25 172 -48 180 -51 8 -3 20 -7 25
-9 69 -18 446 -150 620 -217 312 -120 852 -371 1090 -507 155 -88 202 -115
220 -124 11 -6 82 -49 158 -96 76 -47 146 -90 155 -95 154 -92 772 -532 772
-550 0 -2 -39 19 -87 47 -49 27 -113 64 -143 80 -30 17 -91 50 -135 75 -78 43
-470 238 -570 283 -94 43 -350 152 -410 175 -92 35 -305 115 -350 131 -123 45
-461 153 -525 169 -8 2 -62 17 -120 34 -101 29 -444 114 -505 126 -60 11 -75
14 -200 40 -44 9 -91 18 -105 20 -14 2 -61 10 -105 18 -44 9 -116 20 -161 26
-44 7 -89 13 -100 15 -10 2 -44 7 -74 11 -30 3 -66 8 -80 10 -14 2 -50 6 -80
10 -30 3 -71 8 -90 10 -47 6 -121 13 -330 30 -323 27 -1086 27 -1420 0 -25 -2
-81 -7 -125 -10 -80 -7 -114 -10 -190 -19 -22 -3 -67 -8 -100 -11 -33 -3 -71
-8 -85 -10 -14 -2 -45 -7 -70 -10 -45 -5 -111 -15 -140 -20 -8 -1 -35 -6 -60
-10 -38 -5 -270 -46 -335 -59 -11 -2 -36 -6 -55 -10 -19 -3 -44 -8 -55 -10
-11 -3 -65 -14 -120 -26 -352 -76 -857 -222 -1194 -346 -216 -80 -257 -95
-276 -104 -11 -5 -74 -32 -141 -59 -701 -289 -1419 -698 -2044 -1165 -122 -91
-387 -300 -400 -315 -3 -3 -25 -22 -50 -42 -47 -38 -52 -43 -160 -137 -1256
-1104 -2218 -2552 -2748 -4138 -123 -368 -264 -895 -307 -1152 -3 -18 -12 -63
-20 -100 -29 -142 -54 -301 -89 -572 -28 -223 -31 -257 -51 -490 -28 -339 -28
-1082 0 -1410 1 -19 6 -75 9 -125 4 -49 9 -106 11 -125 2 -19 6 -62 10 -95 3
-33 8 -71 10 -85 2 -14 6 -46 10 -72 11 -100 15 -134 19 -153 4 -21 12 -74 21
-137 2 -21 12 -77 21 -125 8 -49 18 -101 20 -118 15 -88 77 -379 109 -510 62
-252 175 -651 195 -687 6 -10 10 -24 10 -31 0 -14 81 -249 131 -377 72 -189
131 -338 144 -365 8 -16 37 -84 66 -150 115 -269 418 -856 512 -994 68 -100
-2 -18 -121 142 -473 633 -829 1251 -1144 1987 -27 63 -51 120 -52 125 -2 6
-9 24 -15 40 -63 152 -196 529 -256 730 -51 166 -145 516 -159 585 -2 14 -12
57 -20 95 -24 106 -64 309 -82 410 -8 50 -17 101 -20 115 -7 38 -52 358 -59
420 -3 30 -8 71 -10 90 -6 53 -14 137 -20 215 -3 39 -7 93 -10 122 -26 299
-26 980 0 1318 13 166 23 274 30 335 3 25 7 65 10 90 12 105 16 136 20 155 2
11 7 43 10 70 7 52 60 378 70 430 34 173 85 406 90 415 2 4 7 22 10 40 20 116
191 707 240 830 7 19 35 94 60 165 50 139 152 396 191 483 13 29 36 80 50 115
39 92 243 507 306 622 100 181 110 199 187 328 42 71 81 136 86 146 6 9 27 42
47 73 21 31 38 59 38 61 0 11 272 404 379 547 98 132 312 404 330 420 4 3 46
52 96 110 49 58 110 128 136 155 25 28 70 76 100 109 90 97 378 385 484 483
156 143 205 187 350 308 102 86 110 92 170 140 28 22 52 42 55 45 57 57 802
580 826 580 2 0 34 20 71 43 37 24 75 47 83 51 8 3 35 20 60 36 25 16 65 40
90 53 25 13 99 54 165 91 141 80 574 294 725 359 310 133 635 257 890 337 74
23 169 53 210 66 129 40 589 158 665 170 11 1 52 10 90 18 39 9 135 27 215 41
80 15 156 28 170 31 14 2 70 11 125 19 55 8 116 18 135 20 19 3 60 8 90 11 30
2 66 6 80 9 37 6 166 19 305 30 44 4 96 9 115 10 19 2 107 7 195 10 88 4 161
8 163 10 5 4 704 -4 777 -9z m830 -2000 c138 -8 188 -11 300 -22 39 -3 84 -7
100 -9 44 -3 156 -16 185 -20 14 -2 50 -6 80 -10 30 -3 66 -8 80 -10 14 -3 39
-7 55 -9 17 -3 75 -12 130 -22 55 -9 111 -18 125 -20 20 -2 193 -38 381 -79
43 -9 383 -98 444 -116 304 -90 813 -278 1049 -388 49 -23 90 -41 92 -41 7 0
351 -173 449 -225 104 -56 355 -202 435 -253 30 -19 82 -52 115 -73 240 -154
316 -213 457 -358 178 -183 272 -286 402 -441 39 -47 73 -87 76 -90 12 -11
191 -241 246 -315 32 -44 69 -94 81 -110 22 -28 294 -438 320 -480 25 -41 108
-181 119 -200 6 -11 42 -76 81 -145 134 -240 302 -591 393 -820 22 -58 45
-114 51 -125 35 -76 174 -477 225 -652 42 -146 110 -405 128 -495 3 -13 7 -32
10 -43 9 -37 64 -310 70 -350 4 -22 9 -51 11 -65 32 -188 64 -440 80 -632 4
-42 8 -89 10 -105 17 -142 24 -716 12 -983 -7 -147 -10 -189 -22 -320 -12
-142 -16 -177 -20 -205 -2 -16 -7 -55 -10 -85 -3 -30 -7 -64 -9 -75 -2 -11 -8
-49 -12 -85 -4 -36 -9 -67 -9 -70 -1 -3 -5 -27 -10 -55 -4 -27 -9 -59 -11 -70
-2 -11 -7 -36 -10 -55 -16 -95 -78 -397 -101 -485 -14 -55 -27 -110 -29 -121
-2 -12 -26 -100 -53 -195 -95 -335 -250 -769 -365 -1024 -13 -27 -40 -88 -61
-135 -71 -157 -261 -524 -352 -681 -197 -337 -429 -681 -640 -947 -52 -67
-142 -176 -206 -252 -70 -83 -94 -110 -207 -235 -241 -267 -749 -737 -985
-910 -22 -17 -42 -32 -45 -35 -3 -4 -23 -19 -45 -35 -22 -17 -42 -32 -45 -35
-20 -22 -542 -380 -554 -380 -3 0 -31 -17 -63 -38 -32 -21 -65 -42 -73 -45 -8
-4 -31 -17 -50 -29 -240 -148 -656 -357 -994 -500 -340 -143 -860 -316 -1154
-383 -9 -2 -75 -18 -147 -35 -71 -17 -143 -33 -160 -36 -16 -3 -73 -14 -125
-24 -52 -11 -108 -22 -125 -24 -16 -3 -70 -12 -120 -20 -49 -8 -112 -17 -140
-21 -27 -3 -61 -8 -75 -10 -73 -11 -235 -29 -370 -40 -41 -3 -93 -8 -115 -10
-265 -29 -929 -24 -1290 10 -33 3 -84 8 -114 10 -47 4 -205 23 -336 41 -22 3
-80 12 -130 20 -49 8 -103 17 -120 20 -61 10 -241 45 -285 55 -25 6 -52 12
-60 14 -154 32 -461 114 -670 179 -148 46 -466 158 -525 186 -11 5 -67 27
-125 50 -209 83 -659 299 -850 409 -30 17 -88 50 -128 74 -40 23 -81 47 -91
52 -94 54 -349 219 -472 307 -85 60 -165 116 -179 126 -47 31 -295 226 -385
301 -285 238 -590 528 -674 641 -58 79 -191 277 -191 286 0 3 -5 10 -10 17
-92 110 -424 723 -575 1063 -208 467 -404 1048 -500 1484 -29 130 -67 313 -71
340 -3 19 -11 67 -19 105 -8 39 -19 108 -25 155 -6 46 -13 87 -15 90 -1 3 -6
34 -10 70 -3 36 -8 76 -10 90 -1 14 -6 54 -10 90 -4 36 -9 72 -10 81 -2 9 -6
59 -10 110 -4 52 -8 110 -10 129 -10 111 -19 362 -19 545 1 304 16 572 49 870
3 22 7 63 10 90 3 28 8 61 10 75 3 14 7 45 10 69 3 23 7 55 9 70 3 14 8 46 11
71 4 25 9 54 11 65 3 11 6 35 9 54 2 18 7 41 9 50 3 9 7 32 10 51 9 63 47 243
72 350 14 58 27 112 29 120 2 8 8 35 15 60 7 25 13 52 15 61 2 8 24 89 50 180
252 885 655 1728 1194 2494 78 112 271 369 318 425 11 14 60 72 108 130 248
298 587 647 870 895 38 33 73 65 79 70 12 11 122 103 146 122 8 7 53 43 100
81 273 221 680 501 980 675 280 163 686 369 900 457 30 13 59 27 64 32 6 4 16
8 24 8 7 0 37 11 65 24 111 50 640 241 727 262 8 2 71 19 140 39 245 70 704
176 860 198 19 3 91 14 160 25 69 12 150 23 180 27 30 3 66 8 80 10 25 4 126
15 185 20 63 6 182 16 230 20 28 2 109 7 180 10 72 4 131 8 132 9 5 4 485 -2
598 -8z m5707 -2736 c223 -247 499 -603 688 -885 44 -66 84 -124 88 -130 13
-17 166 -266 206 -335 20 -36 41 -72 46 -80 77 -129 277 -525 365 -725 142
-321 252 -620 355 -960 43 -141 132 -475 146 -550 2 -11 7 -33 11 -50 4 -16 7
-32 8 -35 0 -3 4 -21 8 -40 4 -19 9 -46 12 -60 3 -14 8 -41 11 -60 3 -19 10
-55 16 -80 5 -25 11 -56 13 -70 2 -14 11 -68 19 -120 8 -52 18 -115 21 -140 3
-25 8 -56 10 -70 2 -14 6 -50 10 -80 4 -30 8 -66 10 -80 2 -14 6 -56 10 -95 3
-38 8 -94 11 -124 16 -149 28 -434 28 -686 0 -217 -10 -533 -19 -610 -1 -16
-6 -68 -10 -115 -3 -47 -8 -98 -9 -115 -8 -79 -18 -172 -21 -186 -2 -8 -6 -40
-9 -70 -3 -30 -8 -65 -10 -79 -3 -14 -7 -41 -10 -60 -8 -52 -44 -271 -51 -305
-56 -285 -127 -582 -186 -780 -77 -254 -212 -646 -263 -760 -8 -16 -36 -84
-64 -150 -95 -227 -276 -597 -381 -779 -28 -49 -51 -90 -51 -92 0 -7 -175
-292 -248 -404 -111 -171 -327 -473 -404 -565 -9 -11 -42 -51 -73 -90 -31 -38
-63 -79 -72 -90 -267 -329 -668 -735 -1028 -1041 -344 -293 -812 -625 -1165
-827 -273 -156 -566 -308 -745 -386 -55 -24 -127 -56 -160 -71 -273 -123 -848
-324 -1105 -385 -8 -2 -96 -24 -195 -48 -99 -25 -193 -48 -210 -51 -47 -8 -89
-16 -105 -21 -8 -3 -33 -7 -55 -11 -22 -3 -42 -7 -45 -9 -3 -2 -26 -6 -50 -10
-25 -3 -67 -10 -95 -15 -27 -5 -68 -12 -90 -15 -22 -3 -51 -7 -65 -10 -62 -9
-178 -26 -210 -29 -19 -2 -60 -7 -90 -10 -279 -33 -583 -50 -915 -50 -215 0
-461 8 -585 18 -25 2 -83 7 -130 10 -47 4 -101 9 -120 11 -19 2 -60 7 -90 10
-30 3 -71 8 -90 10 -19 3 -52 7 -74 10 -71 8 -120 16 -271 41 -82 14 -163 28
-180 31 -16 2 -61 11 -100 20 -38 8 -79 16 -90 19 -17 3 -156 35 -219 49 -10
2 -55 14 -100 26 -45 11 -88 22 -96 24 -146 30 -901 285 -934 316 -6 5 -16 9
-23 9 -13 0 -76 27 -323 138 -279 126 -631 316 -904 486 -70 45 -142 89 -160
100 -42 25 -349 240 -407 285 -26 20 -59 45 -75 56 -35 25 -222 173 -249 196
-11 9 -56 48 -100 85 -197 167 -452 406 -388 363 12 -8 88 -59 170 -115 287
-195 577 -365 895 -526 171 -87 234 -117 413 -198 91 -41 467 -189 570 -225
44 -15 89 -31 100 -36 103 -43 700 -210 885 -246 14 -3 30 -6 35 -7 49 -11 74
-16 95 -20 28 -5 122 -24 160 -31 46 -9 121 -22 240 -40 14 -2 43 -6 65 -9 22
-4 57 -9 78 -11 20 -3 52 -7 70 -9 17 -2 59 -7 92 -11 33 -3 74 -8 90 -10 17
-2 64 -6 105 -10 41 -3 98 -8 125 -10 338 -30 1015 -25 1375 10 36 4 85 8 110
11 25 2 63 6 85 9 22 2 60 7 85 10 25 3 56 7 70 10 14 2 49 7 79 10 30 4 63 9
75 11 12 2 32 6 46 8 23 5 73 13 130 21 26 4 70 12 105 19 11 2 90 18 175 36
482 99 1095 289 1475 456 22 10 42 18 45 19 76 22 617 285 798 389 35 20 66
36 69 36 2 0 28 15 56 33 29 18 104 64 167 102 315 188 686 453 1005 719 422
352 826 763 1165 1186 19 24 40 48 45 54 6 6 56 72 112 146 460 613 843 1295
1102 1965 42 107 51 130 70 178 5 12 16 42 24 67 8 25 27 77 41 115 14 39 25
70 25 70 -1 0 13 45 31 100 17 55 33 107 35 115 2 8 15 56 30 105 77 257 187
750 220 985 3 25 12 88 20 140 8 52 16 115 19 140 10 83 17 145 21 175 2 17 7
64 10 105 3 41 8 98 10 125 26 310 26 1006 1 1245 -2 19 -7 75 -11 124 -4 49
-8 98 -10 110 -2 11 -6 50 -9 86 -4 36 -8 75 -10 87 -3 12 -7 48 -11 80 -3 32
-8 65 -10 73 -2 8 -6 33 -9 55 -2 22 -10 72 -16 110 -7 39 -14 79 -15 91 -2
11 -8 45 -14 75 -6 30 -13 63 -15 74 -18 100 -21 116 -41 200 -9 39 -19 81
-21 95 -3 14 -23 95 -45 180 -23 85 -42 160 -43 165 -8 34 -28 104 -36 125 -5
14 -21 66 -35 115 -29 96 -149 446 -165 480 -5 11 -32 76 -59 145 -140 355
-388 857 -574 1160 -22 36 -48 79 -57 96 -20 34 -219 343 -233 359 -4 6 -28
39 -53 75 l-46 65 84 -85 c46 -47 118 -123 160 -170z"/>
<path d="M6555 14183 c-238 -39 -387 -139 -494 -334 -46 -84 -93 -242 -106
-359 -4 -30 -8 -57 -10 -60 -2 -3 -6 -27 -9 -55 -11 -82 -17 -119 -21 -145 -3
-14 -7 -38 -9 -55 -10 -60 -26 -161 -30 -185 -3 -14 -9 -56 -15 -95 -6 -38
-13 -79 -15 -91 -2 -12 -7 -45 -11 -75 -4 -30 -8 -56 -10 -59 -2 -3 -6 -32
-10 -64 -3 -33 -8 -62 -10 -65 -1 -3 -6 -31 -10 -61 -3 -30 -8 -62 -10 -70 -2
-8 -7 -35 -10 -60 -6 -45 -10 -70 -19 -125 -3 -16 -10 -61 -16 -100 -6 -38
-13 -81 -15 -95 -6 -36 -36 -231 -40 -257 -3 -21 -14 -87 -20 -123 -1 -8 -6
-35 -10 -60 -3 -25 -9 -58 -11 -75 -3 -16 -7 -45 -10 -64 -5 -37 -5 -38 -28
-176 -13 -78 -23 -138 -51 -330 -3 -22 -8 -47 -10 -55 -2 -8 -7 -35 -10 -60
-7 -52 -60 -396 -75 -485 -12 -69 -17 -104 -25 -160 -3 -22 -10 -62 -15 -90
-5 -27 -12 -70 -15 -95 -3 -25 -10 -72 -16 -105 -6 -33 -12 -70 -14 -82 -2
-12 -8 -57 -15 -100 -6 -43 -15 -100 -20 -128 -5 -27 -12 -68 -15 -90 -3 -22
-8 -56 -11 -75 -5 -35 -37 -232 -49 -300 -3 -19 -8 -85 -12 -146 -16 -305 111
-519 367 -619 73 -29 142 -39 265 -39 281 0 474 86 597 266 89 133 133 280
183 623 2 17 7 44 9 60 13 76 38 233 42 258 2 15 6 39 8 55 5 32 25 156 31
192 6 36 36 231 40 257 3 21 14 87 20 123 1 8 6 35 10 60 3 25 9 59 12 75 5
32 11 68 17 113 10 65 48 301 57 347 5 28 11 70 14 95 3 25 8 56 10 70 2 14 7
41 10 60 3 19 7 46 10 60 3 14 7 39 9 55 2 17 8 50 12 75 4 25 8 54 10 65 1
11 12 81 24 155 25 155 28 178 35 223 4 31 17 104 21 120 1 4 2 21 3 37 0 17
5 30 9 30 5 0 57 -80 116 -177 60 -98 116 -189 124 -203 9 -14 22 -34 28 -45
6 -11 62 -103 124 -205 62 -102 151 -248 198 -325 46 -77 114 -189 151 -248
36 -60 73 -120 82 -135 29 -48 323 -532 454 -747 71 -115 147 -240 169 -277
76 -124 261 -430 281 -464 80 -135 181 -290 220 -338 174 -214 359 -303 640
-310 205 -5 355 47 472 163 77 76 153 216 178 327 21 95 35 166 40 204 3 25
10 70 15 100 8 45 43 263 63 395 3 17 7 41 11 55 3 14 7 43 10 65 3 22 14 99
26 170 12 72 23 144 26 160 3 17 9 55 14 85 5 30 12 73 15 95 2 22 7 51 9 65
3 14 7 41 10 60 3 19 8 46 10 60 3 14 7 41 10 60 5 36 34 215 41 260 2 14 11
70 20 125 9 55 18 111 20 125 2 14 11 68 19 120 8 52 17 111 20 130 3 19 8 46
10 60 3 14 7 41 10 60 3 19 15 94 26 165 12 72 23 141 25 155 27 169 37 231
41 260 3 19 7 42 9 50 2 8 7 38 10 65 4 28 8 57 10 65 2 8 7 38 11 65 3 28 8
59 10 70 3 11 7 36 10 55 3 19 7 46 9 60 2 14 6 39 9 55 3 17 7 46 10 65 3 19
7 44 10 55 2 11 7 43 10 70 6 45 19 125 30 181 2 12 7 45 11 75 4 30 10 72 15
94 5 22 11 63 15 90 3 28 7 57 10 65 2 8 7 35 10 60 6 47 17 117 36 221 57
326 16 564 -125 717 -109 119 -264 172 -484 166 -184 -5 -325 -44 -446 -124
-159 -104 -261 -287 -305 -545 -20 -114 -29 -172 -35 -220 -3 -16 -12 -75 -21
-130 -9 -55 -19 -113 -21 -130 -7 -47 -12 -75 -23 -145 -6 -36 -13 -83 -16
-105 -3 -22 -10 -62 -15 -90 -5 -27 -11 -66 -14 -85 -3 -19 -19 -123 -36 -230
-16 -107 -32 -211 -35 -230 -3 -19 -7 -46 -10 -60 -10 -53 -15 -87 -21 -135
-4 -27 -8 -53 -10 -56 -1 -3 -6 -28 -9 -55 -4 -27 -13 -89 -21 -139 -8 -49
-17 -103 -20 -120 -2 -16 -7 -41 -9 -55 -3 -14 -8 -45 -11 -70 -8 -59 -6 -48
-40 -255 -2 -16 -9 -55 -14 -85 -5 -30 -12 -73 -15 -95 -3 -22 -7 -51 -10 -65
-2 -14 -11 -74 -20 -135 -10 -60 -18 -111 -20 -113 -2 -3 -28 37 -61 93 -6 11
-98 162 -204 335 -106 173 -223 365 -260 425 -37 61 -110 180 -162 265 -52 85
-108 177 -124 203 -16 27 -37 61 -46 75 -10 15 -24 39 -32 53 -9 15 -93 154
-189 310 -95 156 -315 516 -487 799 -173 283 -336 547 -363 585 -51 72 -168
194 -222 231 -62 42 -160 75 -268 90 -48 7 -232 12 -262 7z"/>
<path d="M12917 14114 c-1 -1 -42 -4 -92 -7 -49 -3 -100 -8 -112 -11 -286 -63
-464 -210 -559 -462 -25 -66 -57 -193 -68 -264 -3 -19 -14 -91 -25 -160 -11
-69 -22 -143 -25 -165 -4 -22 -11 -65 -16 -95 -5 -30 -11 -73 -15 -95 -3 -22
-7 -51 -10 -65 -2 -14 -7 -43 -10 -65 -3 -22 -7 -51 -10 -65 -2 -14 -7 -43
-10 -65 -3 -22 -14 -92 -25 -155 -10 -63 -21 -137 -25 -165 -3 -27 -10 -68
-15 -90 -4 -22 -11 -62 -15 -90 -3 -27 -15 -102 -25 -165 -11 -63 -22 -137
-25 -165 -4 -27 -8 -57 -10 -65 -2 -8 -7 -35 -10 -60 -4 -25 -19 -124 -35
-220 -16 -96 -31 -195 -35 -220 -3 -25 -8 -56 -10 -70 -6 -30 -8 -48 -34 -210
-11 -69 -22 -143 -25 -165 -4 -22 -11 -65 -16 -95 -5 -30 -12 -75 -15 -100 -3
-25 -10 -70 -15 -100 -5 -30 -12 -70 -15 -87 -3 -18 -7 -45 -10 -60 -12 -79
-27 -172 -31 -208 -3 -22 -9 -62 -14 -90 -5 -27 -12 -68 -15 -90 -3 -23 -7
-52 -10 -65 -3 -13 -7 -42 -10 -65 -3 -22 -8 -51 -10 -65 -3 -14 -7 -38 -9
-55 -7 -40 -36 -223 -42 -260 -2 -16 -6 -41 -9 -55 -2 -14 -7 -45 -10 -70 -3
-25 -8 -52 -10 -60 -17 -60 -21 -271 -6 -345 49 -251 224 -421 491 -479 77
-16 247 -19 1170 -19 1036 0 1154 3 1365 28 22 3 63 8 90 11 28 3 61 7 75 10
14 2 41 6 61 9 29 4 167 31 249 50 395 88 862 302 1165 534 155 118 328 282
430 406 28 33 53 62 56 65 4 3 43 56 88 118 169 237 291 478 389 768 40 116
95 315 107 384 3 19 10 53 15 75 5 22 12 63 16 90 3 28 7 52 9 55 2 3 6 34 9
70 4 36 9 76 11 90 26 151 27 715 1 845 -2 11 -7 45 -11 75 -4 30 -9 64 -11
75 -3 11 -9 43 -14 70 -30 151 -100 360 -170 510 -42 91 -142 265 -187 324
-289 388 -644 651 -1128 834 -85 32 -175 61 -275 88 -25 7 -49 14 -55 15 -126
35 -446 89 -585 99 -47 4 -96 9 -110 11 -73 12 -358 17 -1023 18 -406 0 -739
0 -740 0z m1513 -1218 c62 -4 116 -9 120 -11 3 -1 32 -6 65 -9 33 -4 103 -18
155 -31 356 -89 584 -246 747 -515 53 -89 113 -234 128 -309 2 -13 6 -30 9
-39 3 -9 8 -30 11 -47 2 -16 7 -41 10 -55 25 -121 26 -544 1 -690 -3 -14 -10
-61 -16 -105 -14 -93 -12 -84 -40 -199 -142 -587 -491 -1001 -998 -1180 -87
-31 -248 -72 -317 -81 -27 -4 -61 -9 -75 -11 -96 -15 -1174 -29 -1233 -15 -18
4 -19 20 -2 111 5 31 23 142 30 195 3 22 10 63 15 90 8 41 41 247 55 345 7 45
95 595 99 615 2 11 6 41 10 66 4 25 9 57 11 70 2 13 14 83 25 154 18 114 43
271 56 345 2 14 11 72 20 130 9 58 18 114 19 125 2 11 11 65 20 120 9 55 18
111 20 125 2 14 10 66 19 115 8 50 18 110 21 135 5 37 56 354 70 439 2 13 7
45 11 70 4 25 10 48 14 51 12 8 789 4 920 -4z"/>
</g>
</svg>
